# xmcd CD database file
#
# Track frame offsets:
#	150
#	20466
#	37362
#	56181
#	73283
#	93955
#	111521
#	129006
#	146106
#
# Disc length: 2505 seconds
#
# Revision: 0
# Processed by: cddbd v1.5.2PL0 Copyright (c) Steve Scherf et al.
# Submitted via: CDex 1.51
#
DISCID=8a09c709
DTITLE=Camela - Dance
DYEAR=1998
DGENRE=Salsa
TTITLE0=Corazón Indomable
TTITLE1=Espina de amor
TTITLE2=Mas la quiero yo
TTITLE3=Pensando en ti
TTITLE4=Lagrimas de amor
TTITLE5=No se si me quiere
TTITLE6=Sueños inalcanzables
TTITLE7=Quiero yo tenerte
TTITLE8=Megamix
EXTD=YEAR: 1998
EXTT0=
EXTT1=
EXTT2=
EXTT3=
EXTT4=
EXTT5=
EXTT6=
EXTT7=
EXTT8=
PLAYORDER=
